<svg xmlns="http://www.w3.org/2000/svg" width="15" height="34" viewBox="0 0 15 34" fill="none">
  <path fill-rule="evenodd" clip-rule="evenodd" d="M6.45304 30.1572H10.933V6.12415C11.4889 5.16861 12.0448 4.21298 12.6009 3.25727L13.9643 0.890563C14.0654 0.71977 14.3549 0.0646573 14.5 0V33.7194C14.4878 33.7234 14.4757 33.7276 14.4635 33.7316C11.7936 33.7276 9.12347 33.7235 6.45304 33.7194V30.1572ZM4.06696 27.7783V34C2.87805 33.996 1.68907 33.9919 0.5 33.9878C0.504058 30.7268 0.508116 27.4654 0.512174 24.2038H4.99217V16.4327C6.1689 14.3915 7.34572 12.3501 8.52261 10.3086H8.54696C8.54294 16.1313 8.53888 21.9545 8.53478 27.7783H4.06696Z" fill="#EFEFEF"/>
</svg>
